<!-- <svg xmlns="http://www.w3.org/2000/svg" fill="none" viewBox="0 0 128 128">
    <path d="M50.4 78.5a75.1 75.1 0 0 0-28.5 6.9l24.2-65.7c.7-2 1.9-3.2 3.4-3.2h29c1.5 0 2.7 1.2 3.4 3.2l24.2 65.7s-11.6-7-28.5-7L67 45.5c-.4-1.7-1.6-2.8-2.9-2.8-1.3 0-2.5 1.1-2.9 2.7L50.4 78.5Zm-1.1 28.2Zm-4.2-20.2c-2 6.6-.6 15.8 4.2 20.2a17.5 17.5 0 0 1 .2-.7 5.5 5.5 0 0 1 5.7-4.5c2.8.1 4.3 1.5 4.7 4.7.2 1.1.2 2.3.2 3.5v.4c0 2.7.7 5.2 2.2 7.4a13 13 0 0 0 5.7 4.9v-.3l-.2-.3c-1.8-5.6-.5-9.5 4.4-12.8l1.5-1a73 73 0 0 0 3.2-2.2 16 16 0 0 0 6.8-11.4c.3-2 .1-4-.6-6l-.8.6-1.6 1a37 37 0 0 1-22.4 2.7c-5-.7-9.7-2-13.2-6.2Z" />
    <style>
        path { fill: #000; }
        @media (prefers-color-scheme: dark) {
            path { fill: #FFF; }
        }
    </style>
</svg> -->

<svg width="320" height="320" viewBox="0 0 320 320" fill="none" xmlns="http://www.w3.org/2000/svg">
<rect width="320" height="320" rx="110" fill="black"/>
<path d="M80 80H125.774V125.845H80V80ZM137.113 80H182.887V125.845H137.113V80ZM217.113 80C204.493 80 194.226 90.2672 194.226 102.887V102.958C194.226 115.578 204.493 125.845 217.113 125.845C229.733 125.845 240 115.578 240 102.958V102.887C240 90.2672 229.733 80 217.113 80ZM102.887 137.077C90.2672 137.077 80 147.345 80 159.965V160.036C80 172.656 90.2672 182.923 102.887 182.923C115.507 182.923 125.774 172.656 125.774 160.036V159.965C125.774 147.345 115.507 137.077 102.887 137.077ZM137.113 137.077H182.887V182.922H137.113V137.077ZM194.226 137.077H240V182.922H194.226V137.077ZM80 194.155H125.774V240H80V194.155ZM160 194.155C147.38 194.155 137.113 204.422 137.113 217.042V217.113C137.113 229.733 147.38 240 160 240C172.62 240 182.887 229.733 182.887 217.113V217.042C182.887 204.422 172.62 194.155 160 194.155ZM194.226 194.155H240V240H194.226V194.155Z" fill="#D9D9D9"/>
</svg>

